<mxfile host="app.diagrams.net" modified="2022-07-14T09:25:18.845Z" agent="5.0 (Windows NT 10.0; Win64; x64) AppleWebKit/537.36 (KHTML, like Gecko) Chrome/101.0.0.0 Safari/537.36" etag="4P5amInvyj936Skd1IgY" version="20.1.1" type="github">
  <diagram id="g2DK2juwyGlPhgw4wuLm" name="Page-1">
    <mxGraphModel dx="705" dy="301" grid="1" gridSize="10" guides="1" tooltips="1" connect="1" arrows="1" fold="1" page="1" pageScale="1" pageWidth="827" pageHeight="1169" math="0" shadow="0">
      <root>
        <mxCell id="0" />
        <mxCell id="1" parent="0" />
        <mxCell id="t8SLZaG8WeMD-7HdlvyO-5" value="整体对齐思路：&lt;br&gt;1. 分别两个线程接收Camera图像和2DObject，对于2DObject进行Channel存储数据(有序map进行时间戳存储)&lt;br&gt;2. 每次接收到Camera图像的时候，去Object的Channel找对应时间戳的数据，可以有一个最大gap time来进行同步&lt;br&gt;3. 找到数据后对Camera数据进行convert和resize，根据分辨率得到Object的缩小系数，之后涉及到两个函数(cv::polylines专门画线的，cv::putText专门写字的，cv::rectangle专门画框的)" style="text;html=1;strokeColor=none;fillColor=none;align=left;verticalAlign=top;whiteSpace=wrap;rounded=0;horizontal=1;" vertex="1" parent="1">
          <mxGeometry x="190" y="110" width="650" height="90" as="geometry" />
        </mxCell>
        <mxCell id="t8SLZaG8WeMD-7HdlvyO-8" value="RecycleChannel" style="swimlane;fontStyle=1;align=center;verticalAlign=top;childLayout=stackLayout;horizontal=1;startSize=26;horizontalStack=0;resizeParent=1;resizeParentMax=0;resizeLast=0;collapsible=1;marginBottom=0;" vertex="1" parent="1">
          <mxGeometry x="230" y="380" width="160" height="86" as="geometry" />
        </mxCell>
        <mxCell id="t8SLZaG8WeMD-7HdlvyO-9" value="+ field: type" style="text;strokeColor=none;fillColor=none;align=left;verticalAlign=top;spacingLeft=4;spacingRight=4;overflow=hidden;rotatable=0;points=[[0,0.5],[1,0.5]];portConstraint=eastwest;" vertex="1" parent="t8SLZaG8WeMD-7HdlvyO-8">
          <mxGeometry y="26" width="160" height="26" as="geometry" />
        </mxCell>
        <mxCell id="t8SLZaG8WeMD-7HdlvyO-10" value="" style="line;strokeWidth=1;fillColor=none;align=left;verticalAlign=middle;spacingTop=-1;spacingLeft=3;spacingRight=3;rotatable=0;labelPosition=right;points=[];portConstraint=eastwest;" vertex="1" parent="t8SLZaG8WeMD-7HdlvyO-8">
          <mxGeometry y="52" width="160" height="8" as="geometry" />
        </mxCell>
        <mxCell id="t8SLZaG8WeMD-7HdlvyO-11" value="+ method(type): type" style="text;strokeColor=none;fillColor=none;align=left;verticalAlign=top;spacingLeft=4;spacingRight=4;overflow=hidden;rotatable=0;points=[[0,0.5],[1,0.5]];portConstraint=eastwest;" vertex="1" parent="t8SLZaG8WeMD-7HdlvyO-8">
          <mxGeometry y="60" width="160" height="26" as="geometry" />
        </mxCell>
        <mxCell id="t8SLZaG8WeMD-7HdlvyO-12" value="RecycleChannel" style="swimlane;fontStyle=1;align=center;verticalAlign=top;childLayout=stackLayout;horizontal=1;startSize=26;horizontalStack=0;resizeParent=1;resizeParentMax=0;resizeLast=0;collapsible=1;marginBottom=0;" vertex="1" parent="1">
          <mxGeometry x="240" y="230" width="160" height="86" as="geometry" />
        </mxCell>
        <mxCell id="t8SLZaG8WeMD-7HdlvyO-13" value="+ field: type" style="text;strokeColor=none;fillColor=none;align=left;verticalAlign=top;spacingLeft=4;spacingRight=4;overflow=hidden;rotatable=0;points=[[0,0.5],[1,0.5]];portConstraint=eastwest;" vertex="1" parent="t8SLZaG8WeMD-7HdlvyO-12">
          <mxGeometry y="26" width="160" height="26" as="geometry" />
        </mxCell>
        <mxCell id="t8SLZaG8WeMD-7HdlvyO-14" value="" style="line;strokeWidth=1;fillColor=none;align=left;verticalAlign=middle;spacingTop=-1;spacingLeft=3;spacingRight=3;rotatable=0;labelPosition=right;points=[];portConstraint=eastwest;" vertex="1" parent="t8SLZaG8WeMD-7HdlvyO-12">
          <mxGeometry y="52" width="160" height="8" as="geometry" />
        </mxCell>
        <mxCell id="t8SLZaG8WeMD-7HdlvyO-15" value="+ method(type): type" style="text;strokeColor=none;fillColor=none;align=left;verticalAlign=top;spacingLeft=4;spacingRight=4;overflow=hidden;rotatable=0;points=[[0,0.5],[1,0.5]];portConstraint=eastwest;" vertex="1" parent="t8SLZaG8WeMD-7HdlvyO-12">
          <mxGeometry y="60" width="160" height="26" as="geometry" />
        </mxCell>
      </root>
    </mxGraphModel>
  </diagram>
</mxfile>
